M48
METRIC,LZ,000.000
;FILE_FORMAT=3:3
;TYPE=PLATED
;Layer: PTH_Through
;EasyEDA v6.5.22, 2023-03-20 13:27:50
;0fcd681f2d4240da92ff1f52a303d1ac,10
;Gerber Generator version 0.2
;Holesize 1 = 0.600 mm
T01C0.600
;Holesize 2 = 1.700 mm
T02C1.700
;Holesize 3 = 2.000 mm
T03C2.000
;Holesize 4 = 2.600 mm
T04C2.600
;Holesize 5 = 3.800 mm
T05C3.800
%
G05
G90
T01
X069326Y-045820G85X069326Y-046820
X055826Y-045820G85X055826Y-046820
X088122Y-045820G85X088122Y-046820
X074622Y-045820G85X074622Y-046820
X028686Y-045820G85X028686Y-046820
X015186Y-045820G85X015186Y-046820
X049006Y-045820G85X049006Y-046820
X035506Y-045820G85X035506Y-046820
T02
X016550Y-018300G85X016550Y-018300
X035450Y-018300G85X035450Y-018300
T03
X003000Y-020000
X003000Y-026000
T04
X066176Y-040320
X058976Y-040320
X084972Y-040320
X077772Y-040320
X025536Y-040320
X018336Y-040320
X045856Y-040320
X038656Y-040320
T05
X020550Y-027700
X031450Y-027700
M30
