G04 Layer: TopSilkscreenLayer*
G04 EasyEDA v6.5.22, 2023-03-20 13:27:50*
G04 0fcd681f2d4240da92ff1f52a303d1ac,10*
G04 Gerber Generator version 0.2*
G04 Scale: 100 percent, Rotated: No, Reflected: No *
G04 Dimensions in millimeters *
G04 leading zeros omitted , absolute positions ,4 integer and 5 decimal *
%FSLAX45Y45*%
%MOMM*%

%ADD10C,0.2032*%
%ADD11C,0.1524*%
%ADD12C,0.2540*%
%ADD13C,0.1270*%

%LPD*%
D10*
X286257Y-1600707D02*
G01*
X286257Y-1766823D01*
X203200Y-1683765D02*
G01*
X369570Y-1683765D01*
X203200Y-2902965D02*
G01*
X369570Y-2902965D01*
D11*
X5336717Y-4687747D02*
G01*
X5326303Y-4693081D01*
X5315889Y-4703495D01*
X5310809Y-4713655D01*
X5310809Y-4734483D01*
X5315889Y-4744897D01*
X5326303Y-4755311D01*
X5336717Y-4760645D01*
X5352465Y-4765725D01*
X5378373Y-4765725D01*
X5393867Y-4760645D01*
X5404281Y-4755311D01*
X5414695Y-4744897D01*
X5419775Y-4734483D01*
X5419775Y-4713655D01*
X5414695Y-4703495D01*
X5404281Y-4693081D01*
X5393867Y-4687747D01*
X5310809Y-4653457D02*
G01*
X5419775Y-4653457D01*
X5310809Y-4653457D02*
G01*
X5419775Y-4580813D01*
X5310809Y-4580813D02*
G01*
X5419775Y-4580813D01*
X5331637Y-4546523D02*
G01*
X5326303Y-4536109D01*
X5310809Y-4520615D01*
X5419775Y-4520615D01*
D10*
X6867204Y-4370638D02*
G01*
X6700834Y-4370638D01*
X5679246Y-4428296D02*
G01*
X5679246Y-4262180D01*
X5762304Y-4345238D02*
G01*
X5595934Y-4345238D01*
D11*
X7216317Y-4687747D02*
G01*
X7205903Y-4693081D01*
X7195489Y-4703495D01*
X7190409Y-4713655D01*
X7190409Y-4734483D01*
X7195489Y-4744897D01*
X7205903Y-4755311D01*
X7216317Y-4760645D01*
X7232065Y-4765725D01*
X7257973Y-4765725D01*
X7273467Y-4760645D01*
X7283881Y-4755311D01*
X7294295Y-4744897D01*
X7299375Y-4734483D01*
X7299375Y-4713655D01*
X7294295Y-4703495D01*
X7283881Y-4693081D01*
X7273467Y-4687747D01*
X7190409Y-4653457D02*
G01*
X7299375Y-4653457D01*
X7190409Y-4653457D02*
G01*
X7299375Y-4580813D01*
X7190409Y-4580813D02*
G01*
X7299375Y-4580813D01*
X7216317Y-4541189D02*
G01*
X7211237Y-4541189D01*
X7200823Y-4536109D01*
X7195489Y-4530775D01*
X7190409Y-4520615D01*
X7190409Y-4499787D01*
X7195489Y-4489373D01*
X7200823Y-4484039D01*
X7211237Y-4478959D01*
X7221651Y-4478959D01*
X7232065Y-4484039D01*
X7247559Y-4494453D01*
X7299375Y-4546523D01*
X7299375Y-4473625D01*
D10*
X8746804Y-4370638D02*
G01*
X8580434Y-4370638D01*
X7558846Y-4428296D02*
G01*
X7558846Y-4262180D01*
X7641904Y-4345238D02*
G01*
X7475534Y-4345238D01*
D11*
X1272717Y-4687747D02*
G01*
X1262303Y-4693081D01*
X1251889Y-4703495D01*
X1246809Y-4713655D01*
X1246809Y-4734483D01*
X1251889Y-4744897D01*
X1262303Y-4755311D01*
X1272717Y-4760645D01*
X1288465Y-4765725D01*
X1314373Y-4765725D01*
X1329867Y-4760645D01*
X1340281Y-4755311D01*
X1350695Y-4744897D01*
X1355775Y-4734483D01*
X1355775Y-4713655D01*
X1350695Y-4703495D01*
X1340281Y-4693081D01*
X1329867Y-4687747D01*
X1246809Y-4653457D02*
G01*
X1355775Y-4653457D01*
X1246809Y-4653457D02*
G01*
X1355775Y-4580813D01*
X1246809Y-4580813D02*
G01*
X1355775Y-4580813D01*
X1246809Y-4536109D02*
G01*
X1246809Y-4478959D01*
X1288465Y-4510201D01*
X1288465Y-4494453D01*
X1293545Y-4484039D01*
X1298625Y-4478959D01*
X1314373Y-4473625D01*
X1324787Y-4473625D01*
X1340281Y-4478959D01*
X1350695Y-4489373D01*
X1355775Y-4504867D01*
X1355775Y-4520615D01*
X1350695Y-4536109D01*
X1345615Y-4541189D01*
X1335201Y-4546523D01*
D10*
X2803204Y-4370638D02*
G01*
X2636834Y-4370638D01*
X1615246Y-4428296D02*
G01*
X1615246Y-4262180D01*
X1698304Y-4345238D02*
G01*
X1531934Y-4345238D01*
D11*
X3304717Y-4687747D02*
G01*
X3294303Y-4693081D01*
X3283889Y-4703495D01*
X3278809Y-4713655D01*
X3278809Y-4734483D01*
X3283889Y-4744897D01*
X3294303Y-4755311D01*
X3304717Y-4760645D01*
X3320465Y-4765725D01*
X3346373Y-4765725D01*
X3361867Y-4760645D01*
X3372281Y-4755311D01*
X3382695Y-4744897D01*
X3387775Y-4734483D01*
X3387775Y-4713655D01*
X3382695Y-4703495D01*
X3372281Y-4693081D01*
X3361867Y-4687747D01*
X3278809Y-4653457D02*
G01*
X3387775Y-4653457D01*
X3278809Y-4653457D02*
G01*
X3387775Y-4580813D01*
X3278809Y-4580813D02*
G01*
X3387775Y-4580813D01*
X3278809Y-4494453D02*
G01*
X3351453Y-4546523D01*
X3351453Y-4468545D01*
X3278809Y-4494453D02*
G01*
X3387775Y-4494453D01*
D10*
X4835204Y-4370638D02*
G01*
X4668834Y-4370638D01*
X3647246Y-4428296D02*
G01*
X3647246Y-4262180D01*
X3730304Y-4345238D02*
G01*
X3563934Y-4345238D01*
D11*
X2599994Y-165366D02*
G01*
X2599994Y-243344D01*
X2605074Y-258838D01*
X2615488Y-269252D01*
X2631236Y-274332D01*
X2641650Y-274332D01*
X2657144Y-269252D01*
X2667558Y-258838D01*
X2672638Y-243344D01*
X2672638Y-165366D01*
X2706928Y-186194D02*
G01*
X2717342Y-180860D01*
X2733090Y-165366D01*
X2733090Y-274332D01*
D12*
X7032602Y-5648545D02*
G01*
X7032602Y-4232005D01*
X5482607Y-5648545D02*
G01*
X5482607Y-4232005D01*
X7032602Y-5648545D02*
G01*
X5482607Y-5648545D01*
X6711962Y-3841076D02*
G01*
X6856963Y-3841838D01*
X5983775Y-3837249D02*
G01*
X6525226Y-3840093D01*
X5651408Y-3835501D02*
G01*
X5813478Y-3836352D01*
X8912202Y-5648545D02*
G01*
X8912202Y-4232005D01*
X7362207Y-5648545D02*
G01*
X7362207Y-4232005D01*
X8912202Y-5648545D02*
G01*
X7362207Y-5648545D01*
X8591562Y-3841076D02*
G01*
X8736563Y-3841838D01*
X7863375Y-3837249D02*
G01*
X8404826Y-3840093D01*
X7531008Y-3835501D02*
G01*
X7693078Y-3836352D01*
X2968602Y-5648545D02*
G01*
X2968602Y-4232005D01*
X1418607Y-5648545D02*
G01*
X1418607Y-4232005D01*
X2968602Y-5648545D02*
G01*
X1418607Y-5648545D01*
X2647962Y-3841076D02*
G01*
X2792963Y-3841838D01*
X1919775Y-3837249D02*
G01*
X2461226Y-3840093D01*
X1587408Y-3835501D02*
G01*
X1749478Y-3836352D01*
X5000602Y-5648545D02*
G01*
X5000602Y-4232005D01*
X3450607Y-5648545D02*
G01*
X3450607Y-4232005D01*
X5000602Y-5648545D02*
G01*
X3450607Y-5648545D01*
X4679962Y-3841076D02*
G01*
X4824963Y-3841838D01*
X3951775Y-3837249D02*
G01*
X4493226Y-3840093D01*
X3619408Y-3835501D02*
G01*
X3781478Y-3836352D01*
D13*
X1534998Y-1794967D02*
G01*
X1544802Y-306171D01*
X3665702Y-306171D01*
X3664991Y-1794967D01*
X1534998Y-1969970D02*
G01*
X1534998Y-2379979D01*
X3664991Y-2379979D01*
X3664991Y-1969970D01*
X1949980Y-2169970D02*
G01*
X1949980Y-2069970D01*
X2150005Y-2069970D01*
X2150005Y-2169970D01*
X1949980Y-2169970D01*
X3049983Y-2169970D02*
G01*
X3049983Y-2069970D01*
X3250008Y-2069970D01*
X3250008Y-2169970D01*
X3049983Y-2169970D01*
X1899993Y-3029968D02*
G01*
X1975002Y-3029968D01*
X2150005Y-3029968D02*
G01*
X3049983Y-3029968D01*
X3224987Y-3029968D02*
G01*
X3299995Y-3029968D01*
D12*
G75*
G01*
X5482905Y-4238305D02*
G02*
X5651409Y-3835502I599829J-14278D01*
G75*
G01*
X7032305Y-4243106D02*
G03*
X6863801Y-3840302I-599829J-14278D01*
G75*
G01*
X7362505Y-4238305D02*
G02*
X7531009Y-3835502I599829J-14278D01*
G75*
G01*
X8911905Y-4243106D02*
G03*
X8743401Y-3840302I-599829J-14278D01*
G75*
G01*
X1418905Y-4238305D02*
G02*
X1587409Y-3835502I599829J-14278D01*
G75*
G01*
X2968305Y-4243106D02*
G03*
X2799801Y-3840302I-599829J-14278D01*
G75*
G01*
X3450905Y-4238305D02*
G02*
X3619409Y-3835502I599829J-14278D01*
G75*
G01*
X5000305Y-4243106D02*
G03*
X4831801Y-3840302I-599829J-14278D01*
D13*
G75*
G01*
X1534998Y-2379980D02*
G03*
X1899996Y-3029966I1075436J176433D01*
G75*
G01*
X3299993Y-3029966D02*
G03*
X3664991Y-2379980I-710437J826419D01*
M02*
